<?xml version="1.0" encoding="utf-8"?>
<!-- Generator: Adobe Illustrator 27.5.0, SVG Export Plug-In . SVG Version: 6.00 Build 0)  -->
<svg version="1.1" id="Layer_1" xmlns:svgjs="http://svgjs.com/svgjs"
	 xmlns="http://www.w3.org/2000/svg" xmlns:xlink="http://www.w3.org/1999/xlink" x="0px" y="0px" viewBox="0 0 512 512"
	 style="enable-background:new 0 0 512 512;" xml:space="preserve">
<style type="text/css">
	.st0{fill:#EC6869;}
</style>
<g>
	<path class="st0" d="M177.6,148.9h5.6c3.2,0,6.4,0.8,9.2,2.4c1.4,0.8,2.9,1.1,4.4,1.1c3.2,0,6.2-1.7,7.9-4.6
		c2.4-4.3,0.9-9.8-3.5-12.2c-5.5-3.1-11.7-4.7-18-4.7h-5.6c-5,0-9,4-9,9S172.6,148.9,177.6,148.9z"/>
	<path class="st0" d="M123.9,162.2c3.4,0,6.6-1.9,8.1-5.1c2.1-4.5,0.2-9.9-4.2-12c-8-3.8-12.3-12.6-10.4-21.3l0.4-1.7
		c0.6-2.6,2.2-4.7,4.6-5.9c2.4-1.2,5.1-1.2,7.5,0c4.5,2.1,9.9,0.2,12-4.2c2.1-4.5,0.2-9.9-4.2-12c-7.4-3.5-15.8-3.5-23.2,0.1
		c-7.3,3.6-12.6,10.3-14.3,18.2l-0.4,1.7c-3.7,16.9,4.7,33.9,20.3,41.4C121.3,161.9,122.6,162.2,123.9,162.2z"/>
	<path class="st0" d="M437.4,371c-3.9-3.1-9.5-2.5-12.7,1.4L387,419.1c-12.4,15.4-17.8,35.4-14.7,55l5.1,31.8
		c0.7,4.4,4.5,7.6,8.9,7.6c0.5,0,0.9,0,1.4-0.1c4.9-0.8,8.3-5.4,7.5-10.3l-5.1-31.8c-2.3-14.5,1.7-29.4,10.9-40.8l37.8-46.8
		C441.9,379.8,441.3,374.1,437.4,371z"/>
	<path class="st0" d="M474.1,131.7c-8.8,0-17.2,2.8-24,8.1c-4.7-14-17.9-23.6-32.7-23.6c-2.2,0-4.4,0.2-6.6,0.6
		c-7.5,1.5-14.5,5.5-19.5,11.3c-4.9,5.7-7.9,13-8.4,20.6l-0.1-0.1c-14.6-7.9-30.4-12.8-46.9-14.3c-4.9-0.5-9.3,3.2-9.8,8.1
		c-0.5,4.9,3.2,9.3,8.1,9.8c14.1,1.3,27.5,5.4,40,12.2l0.4,0.2c5.4,2.9,11.9,2.9,17.2-0.1c5.4-3,8.8-8.5,9.1-14.6
		c0.2-3.7,1.6-7.2,4-10c2.4-2.8,5.7-4.7,9.3-5.4c8.7-1.7,16.9,3.6,19.1,11.9c1.3,4.4,1.9,8.9,1.9,13.5c0,2.1-0.1,4.2-0.4,6.2
		c-2.6,20.5-18,37.2-38.2,41.6l-18.8,4.1c-1,0.2-1.9,0.6-2.7,1c-2.6-2.1-5.2-4.1-8-6l-26.9-18.5c-4.1-2.8-9.7-1.8-12.5,2.3
		s-1.8,9.7,2.3,12.5l26.9,18.5c15.8,10.8,27.9,25.7,35.4,43.3L342,314.7c-14.1-21.6-36-37.5-61.8-43.8c3.2-5,5.9-10.3,8-15.8
		c11.4-29,4.9-62.4-16.3-85.1l-2.1-2.2c9.5-5.5,20.3-10.8,32.2-13.5c4.8-1.1,7.8-6,6.7-10.8c-1.1-4.8-6-7.8-10.8-6.7
		c-16.7,3.9-31,11.6-43.1,19c-5.7-2.6-11.9-3.6-18.1-3c-1-5.1-0.6-10.2,1.3-15.1l2.5-6.6c15.8-41.9,1.1-89-35.7-114.6
		C175.4-4,137.1-7.2,104.7,8.1l-1,0.5C79.1,20.3,59,40.3,47.4,64.9c-9.9,20.8-13.5,44.2-10.4,66.9c-10.8,0.5-19.5,9.4-19.5,20.4
		v68.5c0,5,4,9,9,9s9-4,9-9v-68.5c0-1.3,1.1-2.4,2.4-2.4c5.8,0,11.3,2.3,15.4,6.3c4.1,4.1,6.4,9.6,6.4,15.4v106.9
		c-0.4,8,2.3,16.2,8.2,22.6l62.1,67.6c1.8,1.9,4.2,2.9,6.6,2.9c2.2,0,4.4-0.8,6.1-2.4c3.7-3.4,3.9-9.1,0.5-12.7l-62.1-67.6
		c-2.3-2.5-3.4-5.6-3.4-8.7c0-0.1,0-0.1,0-0.2v-0.6c0.1-3.2,1.4-6.3,3.9-8.7c5.1-5,13.3-5,18.4,0l61.3,60.8
		c-5,12.1-7.8,25.4-7.8,39.3c0,13.3,2.5,26.2,7.4,38.4c1.9,4.6,7.1,6.8,11.7,5c4.6-1.9,6.8-7.1,5-11.7c-4.1-10-6.1-20.7-6.1-31.7
		c0-46.7,38-84.6,84.6-84.6c46.7,0,84.6,38,84.6,84.6c0,46.6-38,84.6-84.6,84.6c-23.4,0-45.1-9.3-61.3-26.3
		c-3.4-3.6-9.1-3.7-12.7-0.3s-3.7,9.1-0.3,12.7c7.5,7.9,16.1,14.4,25.3,19.5v43.6c0,5,4,9,9,9s9-4,9-9v-36c9.9,3.1,20.3,4.7,31,4.7
		c10.8,0,21.2-1.7,31-4.8v36c0,5,4,9,9,9s9-4,9-9v-43.7c31.9-17.4,53.6-51.3,53.6-90.1c0-13.9-2.8-27.2-7.8-39.3l61.3-60.8
		c5.1-5,13.3-5,18.4,0c2.5,2.4,3.7,5.6,3.9,8.7v0.6c0,0,0,0.1,0,0.1c0,3.1-1.2,6.2-3.4,8.7l-62.1,67.6c-3.4,3.7-3.1,9.4,0.5,12.7
		c1.7,1.6,3.9,2.4,6.1,2.4c2.4,0,4.9-1,6.6-2.9l62.1-67.6c5.9-6.4,8.6-14.5,8.2-22.6V171.4c0-1,0.1-1.9,0.2-2.7c0,0,0-0.1,0-0.1
		l0-0.2c0.7-4.6,2.8-9,6.1-12.3c4.1-4.1,9.6-6.4,15.4-6.4c1.4,0,2.5,1.1,2.5,2.4v147.3c0,5.7-2,11.2-5.5,15.6l-24.2,30
		c-3.1,3.9-2.5,9.5,1.4,12.7c1.7,1.3,3.7,2,5.6,2c2.6,0,5.2-1.1,7-3.3l24.2-30c6.1-7.6,9.5-17.2,9.5-27V152.1
		C494.5,140.9,485.3,131.7,474.1,131.7z M170,314.7l-57.4-56.9c-9.4-9.3-23.5-11.4-34.9-6.1v-80.3c0-10.6-4.1-20.6-11.6-28.1
		c-3-3-6.4-5.4-10-7.3c-4.4-21.3-1.7-43.7,7.7-63.4c9.9-20.9,26.9-37.8,47.8-47.7l1-0.5c26.5-12.6,58-9.9,82.1,6.8
		c30,20.8,42,59.3,29.1,93.5l-2.5,6.6c-3.4,8.9-3.8,18.5-1.5,27.7c-0.9,0.6-1.8,1.3-2.7,2c-9.7,8.2-14.2,20.8-12.1,33.3
		c-20.5-5.3-41.9-6.8-63.1-4.1l-23.9,3c-4.9,0.6-8.4,5.1-7.8,10c0.6,4.9,5.1,8.4,10,7.8l23.9-3c26.8-3.3,54,0.6,78.8,11.4l6.9,3
		c1.2,0.5,2.4,0.8,3.6,0.8c3.5,0,6.8-2,8.3-5.4c2-4.6-0.1-9.9-4.6-11.9l-6.9-3c-1.8-0.8-3.7-1.6-5.5-2.3l-1.8-8.9
		c-1.3-6.3,1-12.8,5.9-17c7.2-6.1,17.9-5.5,24.3,1.4l5.8,6.2c16.6,17.7,21.6,43.7,12.7,66.2c-2.8,7.1-6.6,13.7-11.4,19.6
		c-1.4-0.1-2.8-0.1-4.1-0.1C220,268,188.3,286.6,170,314.7z M406.4,252.6c-4.4-9.1-9.9-17.5-16.4-25.1l10.3-2.2
		c13.3-2.9,25-9.7,34-19v45.5C425.5,247.6,415.1,247.9,406.4,252.6z"/>
	<path class="st0" d="M41,315.1c-3.6-4.4-5.5-10-5.5-15.6v-43.9c0-5-4-9-9-9s-9,4-9,9v43.9c0,9.8,3.4,19.3,9.5,27l84,104
		c9.2,11.4,13.2,26.3,10.9,40.8l-5.1,31.8c-0.8,4.9,2.6,9.5,7.5,10.3c0.5,0.1,1,0.1,1.4,0.1c4.3,0,8.2-3.2,8.9-7.6l5.1-31.8
		c3.1-19.5-2.2-39.6-14.7-55L41,315.1z"/>
	<path class="st0" d="M273.1,311.2h-34.2c-5,0-9,4-9,9v24.3h-24.3c-5,0-9,4-9,9v34.2c0,5,4,9,9,9h24.3V421c0,5,4,9,9,9h34.2
		c5,0,9-4,9-9v-24.3h24.3c5,0,9-4,9-9v-34.2c0-5-4-9-9-9h-24.3v-24.3C282.1,315.3,278.1,311.2,273.1,311.2z M297.4,362.5v16.2h-24.3
		c-5,0-9,4-9,9V412h-16.2v-24.3c0-5-4-9-9-9h-24.3v-16.2h24.3c5,0,9-4,9-9v-24.3h16.2v24.3c0,5,4,9,9,9H297.4z"/>
</g>
</svg>
