<svg xmlns="http://www.w3.org/2000/svg" version="1.1" xmlns:xlink="http://www.w3.org/1999/xlink" xmlns:svgjs="http://svgjs.com/svgjs" width="512" height="512" x="0" y="0" viewBox="0 0 520 520" style="enable-background:new 0 0 512 512" xml:space="preserve" class=""><g><g data-name="34-Temperature Reader"><path d="M263.714 303.713a9.971 9.971 0 0 1-7.071-2.929l-37.427-37.427a10 10 0 0 1 0-14.142l118.951-118.951a10 10 0 0 1 14.143 0l37.426 37.426a10 10 0 0 1 0 14.143L270.785 300.784a9.972 9.972 0 0 1-7.071 2.929zm-23.284-47.427 23.284 23.284 104.808-104.808-23.284-23.284z" fill="#ec6869" data-original="#000000" class=""></path><path d="M467.021 52.979a71.708 71.708 0 0 0-101.294 0L180.179 238.526a100.717 100.717 0 0 0-26.8 48.011l-6.179 26.068a80.726 80.726 0 0 1-21.48 38.483l-84.775 84.773a30.543 30.543 0 0 0 43.194 43.194l84.773-84.774A80.72 80.72 0 0 1 207.4 372.8l26.069-6.182a100.719 100.719 0 0 0 48.01-26.8l185.542-185.545a71.707 71.707 0 0 0 0-101.294zM70 464.912A10.542 10.542 0 0 1 55.088 450l22.1-22.1 14.908 14.908zm197.331-139.233a80.727 80.727 0 0 1-38.482 21.48l-26.069 6.182a100.708 100.708 0 0 0-48.01 26.8l-48.534 48.533-14.908-14.91 48.533-48.534a100.709 100.709 0 0 0 26.8-48.01l6.181-26.069a80.727 80.727 0 0 1 21.48-38.482L365.339 81.651l73.01 73.01zm185.548-185.548-.388.388-73.01-73.01.388-.388a51.626 51.626 0 0 1 73.01 73.01z" fill="#ec6869" data-original="#000000" class=""></path><circle cx="386.24" cy="133.754" r="10" fill="#ec6869" data-original="#000000" class=""></circle></g></g></svg>