<svg xmlns="http://www.w3.org/2000/svg" version="1.1" xmlns:xlink="http://www.w3.org/1999/xlink" xmlns:svgjs="http://svgjs.com/svgjs" width="512" height="512" x="0" y="0" viewBox="0 0 682.667 682.667" style="enable-background:new 0 0 512 512" xml:space="preserve" class=""><g><defs><clipPath id="a" clipPathUnits="userSpaceOnUse"><path d="M0 512h512V0H0Z" fill="#ec6869" data-original="#000000"></path></clipPath></defs><path d="m0 0-120 15v30L0 60" style="stroke-width:30;stroke-linecap:butt;stroke-linejoin:miter;stroke-miterlimit:10;stroke-dasharray:none;stroke-opacity:1" transform="matrix(1.33333 0 0 -1.33333 421.333 380)" fill="none" stroke="#ec6869" stroke-width="30" stroke-linecap="butt" stroke-linejoin="miter" stroke-miterlimit="10" stroke-dasharray="none" stroke-opacity="" data-original="#000000"></path><g clip-path="url(#a)" transform="matrix(1.33333 0 0 -1.33333 0 682.667)"><path d="M0 0c3.62 17.834 4.077 36.815.756 56.33-10.064 59.15-56.659 107.976-115.385 120.276-96.915 20.299-182.37-53.234-182.37-146.606v-242c0-51.35 42.743-92.494 94.678-89.882 48.703 2.449 85.322 46.056 85.322 94.821v13.731c0 42.541 24.158 80.077 60.128 103.13" style="stroke-width:30;stroke-linecap:butt;stroke-linejoin:miter;stroke-miterlimit:10;stroke-dasharray:none;stroke-opacity:1" transform="translate(342.999 317)" fill="none" stroke="#ec6869" stroke-width="30" stroke-linecap="butt" stroke-linejoin="miter" stroke-miterlimit="10" stroke-dasharray="none" stroke-opacity="" data-original="#000000"></path><path d="M0 0h-120v120H0c16.568 0 30-13.432 30-30V30C30 13.432 16.568 0 0 0ZM0 0v-152c0-16.568-13.432-30-30-30-16.568 0-30 13.432-30 30V0" style="stroke-width:30;stroke-linecap:butt;stroke-linejoin:miter;stroke-miterlimit:10;stroke-dasharray:none;stroke-opacity:1" transform="translate(436 197)" fill="none" stroke="#ec6869" stroke-width="30" stroke-linecap="butt" stroke-linejoin="miter" stroke-miterlimit="10" stroke-dasharray="none" stroke-opacity="" data-original="#000000"></path><path d="M0 0c0 49.706 40.294 90 90 90 39.187 0 72.524-25.044 84.879-60" style="stroke-width:30;stroke-linecap:butt;stroke-linejoin:miter;stroke-miterlimit:10;stroke-dasharray:none;stroke-opacity:1" transform="translate(106 347)" fill="none" stroke="#ec6869" stroke-width="30" stroke-linecap="butt" stroke-linejoin="miter" stroke-miterlimit="10" stroke-dasharray="none" stroke-opacity="" data-original="#000000"></path><path d="M0 0v39.979c0 14.196 4.084 28.645 13.791 39.003C23.844 89.711 30 104.137 30 120s-6.156 30.289-16.209 41.018C4.084 171.376 0 185.825 0 200.021V210" style="stroke-width:30;stroke-linecap:butt;stroke-linejoin:miter;stroke-miterlimit:10;stroke-dasharray:none;stroke-opacity:1" transform="translate(106 137)" fill="none" stroke="#ec6869" stroke-width="30" stroke-linecap="butt" stroke-linejoin="miter" stroke-miterlimit="10" stroke-dasharray="none" stroke-opacity="" data-original="#000000"></path></g></g></svg>