<svg xmlns="http://www.w3.org/2000/svg" version="1.1" xmlns:xlink="http://www.w3.org/1999/xlink" xmlns:svgjs="http://svgjs.com/svgjs" width="512" height="512" x="0" y="0" viewBox="0 0 32 32" style="enable-background:new 0 0 512 512" xml:space="preserve" class=""><g><path d="M6.334 31h19.332a3.474 3.474 0 0 0 3.47-3.47c0-1.845-1.45-3.343-3.267-3.45l-.99-8.854a7.83 7.83 0 0 0-7.786-6.966h-2.186a7.83 7.83 0 0 0-7.787 6.966l-.989 8.853c-1.817.108-3.267 1.606-3.267 3.45A3.474 3.474 0 0 0 6.334 31zm2.774-15.552a5.83 5.83 0 0 1 5.8-5.188h2.185a5.83 5.83 0 0 1 5.799 5.188l.962 8.61h-3.151c-.68-2.368-2.394-5.17-4.703-5.17s-4.022 2.802-4.703 5.17h-3.15zm9.495 8.61h-5.206c.616-1.744 1.724-3.17 2.603-3.17s1.987 1.426 2.603 3.17zm-12.269 2h19.332a1.472 1.472 0 0 1 0 2.942H6.334a1.472 1.472 0 0 1 0-2.941zM16 5.774a1 1 0 0 0 1-1V2a1 1 0 1 0-2 0v2.774a1 1 0 0 0 1 1zM26.053 9.938a.997.997 0 0 0 .707-.293l1.962-1.961a1 1 0 1 0-1.414-1.414L25.346 8.23a1 1 0 0 0 .707 1.707zM5.24 9.645a.997.997 0 0 0 1.414 0 1 1 0 0 0 0-1.414L4.692 6.27a1 1 0 1 0-1.414 1.414z" fill="#ec6869" data-original="#000000" class=""></path></g></svg>