<svg xmlns="http://www.w3.org/2000/svg" version="1.1" xmlns:xlink="http://www.w3.org/1999/xlink" xmlns:svgjs="http://svgjs.com/svgjs" width="512" height="512" x="0" y="0" viewBox="0 0 512 512" style="enable-background:new 0 0 512 512" xml:space="preserve"><g><path d="M456.298 358.052c0 46.22-37.603 83.822-83.822 83.822H312.15c-7.531 0-13.657 6.127-13.657 13.658V496c0 8.837-7.164 16-16 16s-16-7.163-16-16v-40.468c0-25.176 20.482-45.658 45.657-45.658h60.326c28.575 0 51.822-23.247 51.822-51.822s-23.247-51.822-51.822-51.822l-233.772.001c-8.836 0-16-7.163-16-16s7.164-16 16-16H328.47c28.575 0 51.822-23.248 51.822-51.823s-23.247-51.822-51.822-51.822H139.524c-8.836 0-16-7.164-16-16s7.164-16 16-16h94.093a16.077 16.077 0 0 1 1.803-.311c26.172-2.885 45.908-24.917 45.908-51.248V16c0-8.836 7.164-16 16-16s16 7.164 16 16v71.027c0 18.76-6.341 36.853-17.927 51.559h33.068c46.22 0 83.822 37.603 83.822 83.822 0 20.662-7.529 39.588-19.969 54.216 36.669 8.939 63.976 42.046 63.976 81.428zm-177.125 16h93.302c8.836 0 16-7.163 16-16s-7.164-16-16-16h-232.95c-28.576 0-51.823-23.247-51.823-51.822s23.248-51.822 51.823-51.822H328.47c8.836 0 16-7.164 16-16s-7.164-16-16-16H139.525c-.858 0-3.698-.128-4.284-.177-26.657-2.206-47.539-24.892-47.539-51.646 0-28.575 23.247-51.822 51.822-51.822h60.325c25.176 0 45.658-20.482 45.658-45.658V16c0-8.836-7.164-16-16-16s-16 7.164-16 16v41.104c0 7.531-6.127 13.658-13.658 13.658h-60.325c-46.22 0-83.822 37.603-83.822 83.822 0 27.534 13.687 52.389 34.743 67.757-21.028 15.245-34.743 39.988-34.743 67.888 0 46.22 37.603 83.822 83.823 83.822h77.067c-11.59 14.703-17.922 32.767-17.922 51.557V496c0 8.837 7.164 16 16 16s16-7.163 16-16v-70.392c0-26.518 20.691-49.079 47.105-51.364.475-.041.938-.111 1.398-.192z" fill="#ec6869" data-original="#000000"></path></g></svg>