<?xml version="1.0" encoding="utf-8"?>
<!-- Generator: Adobe Illustrator 27.5.0, SVG Export Plug-In . SVG Version: 6.00 Build 0)  -->
<svg version="1.1" id="Layer_1" xmlns:svgjs="http://svgjs.com/svgjs"
	 xmlns="http://www.w3.org/2000/svg" xmlns:xlink="http://www.w3.org/1999/xlink" x="0px" y="0px" viewBox="0 0 512 512"
	 style="enable-background:new 0 0 512 512;" xml:space="preserve">
<style type="text/css">
	.st0{fill:#EC6869;}
</style>
<g>
	<path class="st0" d="M218.9,466.5c-118.4,1.6-215-95-213.4-213.4c1.6-113.5,94-206,207.5-207.5c118.4-1.6,215,95,213.4,213.4
		C424.9,372.5,332.5,464.9,218.9,466.5z M216,74.5c-100.2,0-181.7,81.6-181.5,181.9c0.2,99.9,82.2,181.4,182.1,181.1
		c42.7-0.1,82.1-15.1,113-40.1c-55.3-24.3-92.1-79.3-92.1-141.4s36.8-117.1,92.1-141.4C298.5,89.5,259,74.5,216,74.5z M352.7,136.8
		c-51.2,16.8-86.2,64.6-86.2,119.2c0,54.6,35,102.5,86.2,119.2c11.8-13.5,21.7-28.8,29.1-45.4c-36.3-5-64.3-36.2-64.3-73.8
		c0-37.6,28-68.8,64.3-73.8C374.4,165.6,364.5,150.3,352.7,136.8z M391.7,210.5c-25,0.1-45.2,20.5-45.2,45.5
		c0,25,20.3,45.4,45.2,45.5c3.8-14.5,5.8-29.8,5.8-45.5C397.5,240.3,395.5,225,391.7,210.5z M410.9,450.9L410.9,450.9
		c-5.4-5.4-5.7-14.2-0.6-19.9c43.4-48.1,67.2-109.7,67.2-175s-23.8-126.9-67.2-175c-5.2-5.7-4.9-14.5,0.6-19.9l0,0
		c5.9-5.9,15.4-5.6,21,0.5c48.2,53.4,74.6,121.9,74.6,194.4s-26.4,141-74.6,194.4C426.3,456.5,416.8,456.8,410.9,450.9z"/>
</g>
</svg>
