<svg xmlns="http://www.w3.org/2000/svg" version="1.1" xmlns:xlink="http://www.w3.org/1999/xlink" xmlns:svgjs="http://svgjs.com/svgjs" width="512" height="512" x="0" y="0" viewBox="0 0 64 68" style="enable-background:new 0 0 512 512" xml:space="preserve" class=""><g><path fill="#ec6869" fill-rule="nonzero" d="M30 48H2a2 2 0 1 1 0-4h60a2 2 0 1 1 0 4H34v8h4a4 4 0 0 1 4 4v4h4a2 2 0 1 1 0 4H18a2 2 0 1 1 0-4h4v-4a4 4 0 0 1 4-4h4zm8 12H26v4h12zM30 0h4a8 8 0 0 1 8 8v4a2 2 0 0 1-2 2H24a2 2 0 0 1-2-2V8a8 8 0 0 1 8-8zm8 8a4 4 0 0 0-4-4h-4a4 4 0 0 0-4 4v2h12zM2 41a2 2 0 1 1 0-4h12a2 2 0 1 1 0 4zm28-21a2 2 0 1 1 4 0v8a2 2 0 1 1-4 0zm9.162-.212a2 2 0 0 1 3.676-1.576l3 7a2 2 0 0 1-3.676 1.576zm-18-1.576a2 2 0 0 1 3.676 1.576l-3 7a2 2 0 0 1-3.676-1.576z" data-original="#000000" class=""></path></g></svg>