<svg xmlns="http://www.w3.org/2000/svg" version="1.1" xmlns:xlink="http://www.w3.org/1999/xlink" xmlns:svgjs="http://svgjs.com/svgjs" width="512" height="512" x="0" y="0" viewBox="0 0 57.696 57.695" style="enable-background:new 0 0 512 512" xml:space="preserve" class=""><g><path d="M10.902 19.22a1.847 1.847 0 0 1-1.586-2.789c3.455-5.822 3.466-8.958.043-11.568a1.846 1.846 0 0 1 2.239-2.937c7.309 5.574 2.813 13.152.894 16.389a1.85 1.85 0 0 1-1.59.905zM21.243 11.978a1.847 1.847 0 0 1-1.813-2.206c.332-1.67-.584-4.522-2.936-6.519a1.846 1.846 0 1 1 2.39-2.815c3.105 2.637 4.819 6.77 4.168 10.052a1.848 1.848 0 0 1-1.809 1.488zM40.215 57.695c-1.058 0-2.14-.04-3.238-.121-10.394-.766-19.399-4.982-24.707-11.564-4.041-5.012-5.89-10.719-5.494-16.962.064-1.019.959-1.766 1.959-1.727a1.846 1.846 0 0 1 1.726 1.959c-.34 5.368 1.192 10.082 4.684 14.411 4.669 5.791 12.727 9.509 22.105 10.2 6.812.506 13.188-.798 15.91-3.241.779-1.268 1.705-9.357-.745-18.52-1.651-6.173-5.294-14.335-13.272-18.167a1.845 1.845 0 0 1-.864-2.463 1.841 1.841 0 0 1 2.463-.865c11.707 5.623 15.293 18.762 16.389 26.094.974 6.513.811 14.538-1.408 16.582-3.023 2.786-8.794 4.384-15.508 4.384z" style="" fill="#ec6869" data-original="#000000"></path><path d="M24.471 25.663a1.845 1.845 0 0 1-1.844-1.959c.733-11.948 7.71-18.214 19.62-17.621A1.846 1.846 0 0 1 44 8.018c-.05 1.018-.912 1.816-1.935 1.753-9.841-.487-15.147 4.28-15.754 14.16a1.846 1.846 0 0 1-1.84 1.732z" style="" fill="#ec6869" data-original="#000000"></path><path d="M19.206 17.403a1.847 1.847 0 0 1-1.82-2.165C18.711 7.666 25.639 0 36.313 0a1.846 1.846 0 1 1 0 3.692c-8.638 0-14.231 6.129-15.292 12.184a1.846 1.846 0 0 1-1.815 1.527zM17.945 22.964a1.84 1.84 0 0 1-1.234-.473C12.72 18.902 5.982 17.715 2.43 18.902a1.845 1.845 0 1 1-1.166-3.504c4.59-1.527 12.747-.302 17.916 4.347a1.846 1.846 0 0 1-1.235 3.219zM12.407 27.768c-.402 0-.807-.13-1.146-.399-2.25-1.785-6.253-1.903-8.878-1.105a1.847 1.847 0 0 1-1.073-3.533c3.499-1.062 8.823-.968 12.245 1.746a1.846 1.846 0 0 1-1.148 3.291zM17.721 57.112a1.842 1.842 0 0 1-1.845-1.952c.008-.135.227-3.333 2.447-6.084a1.848 1.848 0 0 1 2.873 2.321c-1.459 1.807-1.634 3.978-1.636 3.999a1.85 1.85 0 0 1-1.839 1.716zM8.783 56.275c-.9-1.393.848-6.409 1.398-7.633a1.845 1.845 0 1 1 3.367 1.515c-1.227 2.728-1.37 5.178-1.371 5.202l-1.834-.098-.01.01-1.55 1.004zM38.445 44.246a1.846 1.846 0 0 1-1.719-2.52c1.777-4.543 1.659-9.246-.333-13.242-1.519-3.047-4.005-5.372-6.488-6.067a1.845 1.845 0 1 1 .996-3.554c3.509.981 6.797 3.963 8.797 7.975 2.464 4.942 2.629 10.708.467 16.235a1.847 1.847 0 0 1-1.72 1.173z" style="" fill="#ec6869" data-original="#000000"></path><path d="M46.284 32.206a1.848 1.848 0 0 1-1.705-1.137c-1.253-3.005-4.024-2.773-6.131-2.048a1.846 1.846 0 1 1-1.202-3.491c4.868-1.677 8.985-.099 10.741 4.118a1.846 1.846 0 0 1-1.703 2.558z" style="" fill="#ec6869" data-original="#000000"></path></g></svg>