<?xml version="1.0" encoding="utf-8"?>
<!-- Generator: Adobe Illustrator 27.5.0, SVG Export Plug-In . SVG Version: 6.00 Build 0)  -->
<svg version="1.1" id="Layer_1" xmlns:svgjs="http://svgjs.com/svgjs"
	 xmlns="http://www.w3.org/2000/svg" xmlns:xlink="http://www.w3.org/1999/xlink" x="0px" y="0px" viewBox="0 0 512 512"
	 style="enable-background:new 0 0 512 512;" xml:space="preserve">
<style type="text/css">
	.st0{clip-path:url(#SVGID_00000003803592138808666690000012409156935987103163_);}
	.st1{fill:#EC6869;}
</style>
<g>
	<g>
		<defs>
			<rect id="SVGID_1_" width="512" height="512"/>
		</defs>
		<clipPath id="SVGID_00000183959341017973671000000010178263620649932690_">
			<use xlink:href="#SVGID_1_"  style="overflow:visible;"/>
		</clipPath>
		<g style="clip-path:url(#SVGID_00000183959341017973671000000010178263620649932690_);">
			<path class="st1" d="M416,431.5h-32.5v-18c0-19.3-7.1-37.8-19.7-52.1c1.5-1.4,3-2.8,4.4-4.2c24.7-24.7,38.3-57.4,38.3-92.2
				c0-17.3-3.4-34.1-10-50c0.8-3.5,1.2-7.1,1.2-10.8c0-14.9-6.5-28.3-16.7-37.5l2.8-4.9c6.6-11.4,5-25.3-3-34.8l11.9-20.6
				c1.7,0,3.3-0.3,5-0.7c5.3-1.4,9.7-4.8,12.5-9.5l15-26c2.9-5,1.2-11.4-3.8-14.3L326,0.9c-2.4-1.4-5.3-1.8-8-1
				c-2.7,0.7-5,2.5-6.4,4.9l-15,26c-2.7,4.7-3.5,10.3-2,15.6c0.4,1.7,1.1,3.2,1.9,4.7l-11.9,20.6c-4.3-0.7-8.8-0.6-13.1,0.6
				c-7.9,2.1-14.5,7.2-18.5,14.2l-55,95.3c-4.1,7-5.1,15.3-3,23.1c1.2,4.4,3.2,8.3,6,11.7l-10.7,18.5c-2.7,4.7-3.5,10.3-2,15.6
				c1.4,5.3,4.8,9.7,9.5,12.5l60.6,35c3.2,1.9,6.7,2.7,10.2,2.7c7.1,0,14-3.7,17.8-10.2l10.7-18.5c1.7,0.3,3.4,0.5,5.2,0.5
				c10.5,0,20.8-5.5,26.5-15.2l2.8-4.9c4.2,1.4,8.6,2.2,13.2,2.4c0.5,3.4,0.8,6.9,0.8,10.3c0,18.5-7.3,35.9-20.4,49.1
				c-13.2,13.2-30.6,20.4-49.1,20.4h-35c-5.8,0-10.5,4.7-10.5,10.5s4.7,10.5,10.5,10.5h35c5.2,0,9.5,4.3,9.5,9.5s-4.3,9.5-9.5,9.5
				H116c-5.2,0-9.5-4.3-9.5-9.5s4.3-9.5,9.5-9.5h35c5.8,0,10.5-4.7,10.5-10.5s-4.7-10.5-10.5-10.5h-35c-16.8,0-30.5,13.7-30.5,30.5
				s13.7,30.5,30.5,30.5h24.8v36H96c-16.8,0-30.5,13.7-30.5,30.5v40c0,5.8,4.7,10.5,10.5,10.5h360c5.8,0,10.5-4.7,10.5-10.5v-40
				C446.5,445.2,432.8,431.5,416,431.5z M362.5,413.5v18h-19v-18c0-11.8-5.3-22.5-13.7-29.6c6-2.7,11.8-5.9,17.3-9.6
				C357,385,362.5,398.9,362.5,413.5z M276,395.5h28.5c9.9,0,18,8.1,18,18v18h-70.7v-36H276z M347.2,233.7
				c-16.3,0-29.5-13.2-29.5-29.5s13.2-29.5,29.5-29.5s29.5,13.2,29.5,29.5S363.4,233.7,347.2,233.7z M303.7,80.4l9.5-16.5L373,98.5
				l-9.5,16.5L303.7,80.4z M324.6,24.3l77.1,44.5l-9.5,16.5l-77.1-44.5L324.6,24.3z M268.5,279.5L208.7,245l9.5-16.5L278,263
				L268.5,279.5z M310.6,246.6c-2.6,4.5-8.4,6.1-13,3.5c0,0,0,0,0,0c0,0,0,0,0,0l-77.9-45c0,0,0,0,0,0c0,0,0,0,0,0
				c-2.2-1.3-3.7-3.3-4.4-5.8c-0.7-2.5-0.3-5,0.9-7.2l55-95.3c1.3-2.2,3.3-3.7,5.8-4.4c2.5-0.7,5-0.3,7.2,0.9l77.9,45
				c4.5,2.6,6.1,8.4,3.5,13l-2.8,4.9c-4.9-1.6-10.2-2.5-15.6-2.5c-27.8,0-50.5,22.7-50.5,50.5c0,14.9,6.5,28.3,16.7,37.5
				L310.6,246.6z M303.2,351.3c13.7-4.3,26.2-11.9,36.7-22.4c17.1-17.1,26.6-39.8,26.6-63.9c0-4.6-0.4-9.2-1.1-13.7
				c6.5-2.5,12.3-6.4,17.2-11.2c1.9,8.1,2.9,16.4,2.9,24.9c0,29.1-11.4,56.6-32.2,77.3c-13.4,13.4-29.6,22.9-47.3,28
				c0.3-1.7,0.5-3.5,0.5-5.3C306.5,360.1,305.3,355.4,303.2,351.3z M161.8,395.5h69v36h-69V395.5z M425.5,491.5h-339V462
				c0-5.2,4.3-9.5,9.5-9.5h320c5.2,0,9.5,4.3,9.5,9.5V491.5z"/>
			<path class="st1" d="M206.5,345c0-5.8-4.7-10.5-10.5-10.5h0c-5.8,0-10.5,4.7-10.5,10.5s4.7,10.5,10.5,10.5S206.5,350.8,206.5,345
				z"/>
		</g>
	</g>
</g>
</svg>
