<svg xmlns="http://www.w3.org/2000/svg" version="1.1" xmlns:xlink="http://www.w3.org/1999/xlink" xmlns:svgjs="http://svgjs.com/svgjs" width="512" height="512" x="0" y="0" viewBox="0 0 120 120" style="enable-background:new 0 0 512 512" xml:space="preserve" class=""><g><g fill="#000"><path fill-rule="evenodd" d="M88.51 18.895a4.969 4.969 0 0 0 1.203-5.96 4.868 4.868 0 0 0-5.793-2.492c-10.078 2.99-25.755 10.771-35.309 21.328-2.023 2.236-1.567 5.623.725 7.333l5.859 4.373a5 5 0 0 0 3.979.894l8.616-1.738a5.018 5.018 0 0 0 3.437-2.554c1.05-1.96 6.639-11.831 17.283-21.184zM56.88 34.752c4.539-4.308 10.276-8.086 15.907-11.043-4.024 4.91-6.634 9.11-7.923 11.353l-5.958 1.202zM44.012 46.522c1.347-2.62 4.53-3.382 6.894-2.033l5.755 3.283 7.104-1.501c3.212-.679 5.978 1.82 6.046 4.815.047 2.064.22 3.663.459 4.914H105a5 5 0 0 1 5 5v44a5 5 0 0 1-5 5H15a5 5 0 0 1-5-5V61a5 5 0 0 1 5-5h25.46c.893-3.432 2.107-6.665 3.552-9.478zm5.801 6.554c-2.573 6.437-3.777 14.65-2.529 21.423.714 3.87 2.17 6.97 4.3 9.069C53.636 85.59 56.627 87 61.134 87c7.89 0 12.621-6.28 11.76-11.56-.442-2.704-1.162-4.084-1.812-4.953-2.348-3.144-5.614-4.659-7.337-8.568-.85-1.926-1.426-4.233-1.72-7.104l-4.826 1.02a5 5 0 0 1-3.511-.549zm27.678 12.623A16.278 16.278 0 0 0 76.016 64H102v38H18V64h21.027c-.401 4.045-.314 8.132.39 11.95.91 4.941 2.913 9.73 6.551 13.316C49.685 92.928 54.773 95 61.133 95c12.006 0 21.44-9.926 19.656-20.85-.609-3.729-1.744-6.37-3.298-8.451z" clip-rule="evenodd" fill="#ec6869" data-original="#000000" class=""></path><path d="M74 50a4 4 0 0 1 4-4h7a4 4 0 1 1 0 8h-7a4 4 0 0 1-4-4zM85.828 38.828a4 4 0 0 0-5.656-5.657l-4.5 4.5a4 4 0 0 0 5.656 5.657zM42.5 41.628a4 4 0 0 0-4-4h-7a4 4 0 1 0 0 8h7a4 4 0 0 0 4-4zM34.277 28.925a4 4 0 0 1 6.832-4.163l3.312 5.434a4 4 0 1 1-6.832 4.164z" fill="#ec6869" data-original="#000000" class=""></path></g></g></svg>