<svg xmlns="http://www.w3.org/2000/svg" version="1.1" xmlns:xlink="http://www.w3.org/1999/xlink" xmlns:svgjs="http://svgjs.com/svgjs" width="512" height="512" x="0" y="0" viewBox="0 0 512 512" style="enable-background:new 0 0 512 512" xml:space="preserve" class=""><g><path d="M512 497H0M458.811 423.263H135.794L26.186 313.656c-14.914-14.914-14.914-39.094 0-54.008 14.914-14.914 39.094-14.914 54.008 0l87.237 87.237h291.38c21.091 0 38.189 17.098 38.189 38.189s-17.098 38.189-38.189 38.189zM135.794 423.263V497M196.866 423.263V497M392.56 423.263V497M453.631 423.263V497" style="stroke-width:30;stroke-miterlimit:10;" fill="none" stroke="#ec6869" stroke-width="30" stroke-miterlimit="10" data-original="#000000" class=""></path><path d="M80.194 205.639c-14.914 14.914-14.914 39.095 0 54.009l10.333 10.332c14.914 14.914 39.094 14.914 54.008 0 14.914-14.914 14.914-39.094 0-54.008l-10.332-10.332c-14.915-14.915-39.095-14.915-54.009-.001z" style="stroke-width:30;stroke-miterlimit:10;" fill="none" stroke="#ec6869" stroke-width="30" stroke-miterlimit="10" data-original="#000000" class=""></path><path d="m237.141 346.885 32.842-32.842c12.453-12.453 12.453-32.643 0-45.095-12.453-12.453-32.642-12.453-45.095 0l-22.602 22.602-13.541-13.541c-14.425-14.426-37.813-14.426-52.239 0l-18.976 18.976 49.901 49.901M422.327 347.22l33.177-33.177c12.453-12.453 12.453-32.643 0-45.095-12.453-12.453-32.643-12.453-45.095 0l-17.849 17.849H284.125M232.765 135h81.36c33.137 0 60-26.863 60-60s-26.863-60-60-60h-60c-33.137 0-60 26.863-60 60v78.643L232.765 135zM239.125 75h30M329.125 75h-30" style="stroke-width:30;stroke-miterlimit:10;" fill="none" stroke="#ec6869" stroke-width="30" stroke-miterlimit="10" data-original="#000000" class=""></path></g></svg>