<?xml version="1.0" encoding="utf-8"?>
<!-- Generator: Adobe Illustrator 27.5.0, SVG Export Plug-In . SVG Version: 6.00 Build 0)  -->
<svg version="1.1" id="Layer_1" xmlns:svgjs="http://svgjs.com/svgjs"
	 xmlns="http://www.w3.org/2000/svg" xmlns:xlink="http://www.w3.org/1999/xlink" x="0px" y="0px" viewBox="0 0 512 512"
	 style="enable-background:new 0 0 512 512;" xml:space="preserve">
<style type="text/css">
	.st0{fill:#EC6869;}
</style>
<path class="st0" d="M291.7,73.5c-39.9,0-77.8,12.7-109.7,36.6c-31.5,23.7-54,56.1-65.2,93.9H37.8v17.1h175.5
	c24.1,0,43.7,19.6,43.7,43.7c0,23.9-19.4,43.5-43.3,43.6H39.5v51.9h102.4c16.7,24.1,39.1,43.9,64.7,57.4
	c26,13.7,55.4,20.9,85.1,20.9c100.6-0.1,182.5-82,182.5-182.6C474.2,155.4,392.3,73.5,291.7,73.5z M291.7,134.1
	c67.2,0,121.9,54.7,121.9,121.9c0,18.2-4,35.8-11.8,52.4H360c11.9-11.4,18.6-27.1,18.6-43.6c0-33.5-27.2-60.7-60.7-60.7
	c-21.5,0-41.3,11.3-52.2,29.8c-11-18.5-30.8-29.8-52.3-29.8h-32C201.4,161.4,244.5,134.1,291.7,134.1z M317.8,221
	c24.1,0,43.7,19.6,43.7,43.7c0,23.9-19.4,43.5-43.3,43.6h-0.8c-23.9-0.2-43.3-19.8-43.3-43.6C274,240.6,293.7,221,317.8,221z
	 M275.6,308.4h-20.1c3.9-3.8,7.2-8,10-12.7C268.3,300.3,271.7,304.6,275.6,308.4z M199.8,360.2c25.4,22.4,58,34.8,91.8,34.8
	c37,0,70.6-13.2,94.5-37.1c30.4-30.3,44.5-62.7,44.5-101.9c0-76.6-62.4-139-139-139c-27.9,0-54.9,8.4-78.1,24.2
	c-22.9,15.6-40.4,37.3-50.7,62.8h-28.1c10.8-32.8,31.2-60.9,59-81.4c28.5-21,62.4-32,97.9-32c91.2,0,165.4,74.2,165.4,165.4
	c0,91.2-74.2,165.4-165.4,165.4c-50.3,0-97-22.3-128.5-61.2H199.8z M391.9,325.4c-4.5,6.5-9.5,12.4-15.1,17.7H56.4v-17.7H391.9z
	 M228.6,360.2h126.3c-19.1,11.6-40.9,17.7-63.2,17.7C269.3,377.9,247.6,371.8,228.6,360.2z"/>
</svg>
