<svg xmlns="http://www.w3.org/2000/svg" version="1.1" xmlns:xlink="http://www.w3.org/1999/xlink" xmlns:svgjs="http://svgjs.com/svgjs" width="512" height="512" x="0" y="0" viewBox="0 0 24 24" style="enable-background:new 0 0 512 512" xml:space="preserve" class=""><g><path fill="#ec6869" fill-rule="evenodd" d="M3.893 2.914A6.48 6.48 0 0 0 2 7.5c0 .432.042.855.123 1.265.205 1.036.588 2.06.935 2.989.079.209.155.413.228.612.412 1.133.714 2.14.714 3.145v4.29a3.198 3.198 0 0 0 6.334.628l.254-1.272a1.44 1.44 0 0 1 2.824 0l.254 1.272A3.198 3.198 0 0 0 20 19.802v-4.29c0-1.005.302-2.013.714-3.146l.227-.612c.348-.93.731-1.953.936-2.99A6.5 6.5 0 0 0 12 2.022a6.474 6.474 0 0 0-3.5-1.021 6.48 6.48 0 0 0-4.607 1.914zM4 7.5c0 .301.03.594.085.877.17.86.48 1.693.823 2.611.085.226.17.457.257.694.42 1.156.835 2.448.835 3.83v4.29a1.198 1.198 0 0 0 2.373.235l.254-1.272a3.44 3.44 0 0 1 6.746 0l.254 1.272A1.198 1.198 0 0 0 18 19.802v-4.29c0-1.382.415-2.674.835-3.83.086-.237.172-.468.257-.693.342-.92.653-1.751.823-2.612a4.5 4.5 0 0 0-6.344-4.944 6.5 6.5 0 0 1 1.183 2.294 1 1 0 0 1-1.925.546A4.5 4.5 0 0 0 4 7.5z" clip-rule="evenodd" data-original="#000000" class=""></path></g></svg>