<svg xmlns="http://www.w3.org/2000/svg" version="1.1" xmlns:xlink="http://www.w3.org/1999/xlink" xmlns:svgjs="http://svgjs.com/svgjs" width="512" height="512" x="0" y="0" viewBox="0 0 64 64" style="enable-background:new 0 0 512 512" xml:space="preserve" class=""><g><path d="M60.885 31.004A6.975 6.975 0 0 0 63 26a7.01 7.01 0 0 0-3.309-5.944c.2-.65.309-1.341.309-2.056a7.01 7.01 0 0 0-3.309-5.944c.2-.65.309-1.341.309-2.056 0-3.859-3.141-7-7-7H36.816A2.996 2.996 0 0 0 34 1h-4a2.996 2.996 0 0 0-2.816 2H14c-3.859 0-7 3.141-7 7 0 .715.109 1.406.309 2.056A7.01 7.01 0 0 0 4 18c0 .715.109 1.406.309 2.056A7.01 7.01 0 0 0 1 26c0 1.96.812 3.732 2.115 5.004A6.975 6.975 0 0 0 1 36c0 1.487.469 2.864 1.263 3.999a6.96 6.96 0 0 0 0 8A6.984 6.984 0 0 0 1 52c0 3.859 3.141 7 7 7h2.696a10.03 10.03 0 0 0 9.397-6.582l4.409-12.127a5.01 5.01 0 0 1 2.497-2.776V44c0 .771.301 1.468.78 2a2.98 2.98 0 0 0-.655 1.188l-2.399.6C23.71 48.042 23 48.952 23 50s.71 1.958 1.728 2.212l2.398.6c.127.448.351.852.655 1.188a2.98 2.98 0 0 0-.655 1.188l-2.399.6C23.71 56.042 23 56.952 23 58s.71 1.958 1.728 2.212l2.398.6A2.994 2.994 0 0 0 30 63h4c1.371 0 2.518-.93 2.874-2.188l2.399-.6C40.29 59.958 41 59.048 41 58s-.71-1.958-1.728-2.212l-2.398-.6A2.99 2.99 0 0 0 36.22 54a2.98 2.98 0 0 0 .655-1.188l2.399-.6C40.29 51.958 41 51.048 41 50s-.71-1.958-1.728-2.212l-2.398-.6A2.99 2.99 0 0 0 36.22 46c.48-.532.78-1.229.78-2v-6.484a5.004 5.004 0 0 1 2.497 2.776l4.409 12.127A10.031 10.031 0 0 0 53.304 59H56c3.859 0 7-3.141 7-7a6.984 6.984 0 0 0-1.263-4.001 6.96 6.96 0 0 0 0-8A6.952 6.952 0 0 0 63 36a6.975 6.975 0 0 0-2.115-4.996zM56 49h-6.755l-.727-2H54c2.643 0 4.792-2.069 4.967-4.669a6.993 6.993 0 0 0 1.353-.834c.438.756.68 1.616.68 2.503 0 2.757-2.243 5-5 5zm.833 1.946A2.995 2.995 0 0 1 54 53a4.719 4.719 0 0 1-3.838-2H56c.282 0 .559-.022.833-.054zM47.064 43H56c.282 0 .559-.022.833-.054A2.995 2.995 0 0 1 54 45h-6.209zM61 36c0 2.757-2.243 5-5 5h-9.663l-.727-2H54c2.757 0 5-2.243 5-5 0-.535-.094-1.06-.258-1.561a6.82 6.82 0 0 0 .502-.242A4.991 4.991 0 0 1 61 36zm-27 9h-4a1 1 0 0 1-1-1v-6.263A2.992 2.992 0 0 0 31.441 39h1.117c.99 0 1.889-.486 2.441-1.263V44A.999.999 0 0 1 34 45zm1 3v4a1 1 0 0 1-1 1h-4a1 1 0 0 1-1-1v-4a1 1 0 0 1 1-1h4a1 1 0 0 1 1 1zM19.131 37H10c-1.654 0-3-1.346-3-3 0-.362.072-.716.197-1.05.264.031.531.05.803.05h14.168a9.547 9.547 0 0 0-3.037 4zm-12.1-13.24A6.96 6.96 0 0 0 11 25h16v2H10c-1.654 0-3-1.346-3-3 0-.082.025-.159.031-.24zm3-8A6.96 6.96 0 0 0 14 17h13v2H13c-1.654 0-3-1.346-3-3 0-.082.025-.159.031-.24zM29.236 11h5.527c.775 0 1.49.335 1.98.904A7.895 7.895 0 0 0 35 16.828v15.01l-1.492 4.479a1 1 0 0 1-.949.683h-1.117a.998.998 0 0 1-.949-.684L29 31.838v-15.01a7.89 7.89 0 0 0-1.744-4.924 2.602 2.602 0 0 1 1.98-.904zm24.733 4.76c.006.081.031.158.031.24 0 1.654-1.346 3-3 3H37v-2h13a6.96 6.96 0 0 0 3.969-1.24zm3 8c.006.081.031.158.031.24 0 1.654-1.346 3-3 3H37v-2h16a6.96 6.96 0 0 0 3.969-1.24zm-.166 9.19c.125.334.197.688.197 1.05 0 1.654-1.346 3-3 3h-9.131a9.553 9.553 0 0 0-3.036-4H56c.272 0 .539-.019.803-.05zM61 26c0 2.757-2.243 5-5 5H37v-2h17c2.757 0 5-2.243 5-5 0-.643-.126-1.277-.364-1.867.062-.084.126-.165.184-.251A5.003 5.003 0 0 1 61 26zm-3-8c0 2.757-2.243 5-5 5H37v-2h14c2.757 0 5-2.243 5-5 0-.643-.126-1.277-.364-1.867.062-.084.126-.165.184-.251A5.003 5.003 0 0 1 58 18zm-3-8c0 2.757-2.243 5-5 5H37.303a5.858 5.858 0 0 1 1.139-2H48c2.757 0 5-2.243 5-5 0-.863-.24-1.664-.627-2.373C53.929 6.475 55 8.106 55 10zm-4-2c0 1.654-1.346 3-3 3h-9.432a4.58 4.58 0 0 0-1.928-1.605c.222-.419.36-.889.36-1.395V5h11c1.654 0 3 1.346 3 3zM29 4a1 1 0 0 1 1-1h4a1 1 0 0 1 1 1v4a1 1 0 0 1-1 1h-4a1 1 0 0 1-1-1zm-2 1v3c0 .506.138.976.36 1.395A4.588 4.588 0 0 0 25.432 11H16c-1.654 0-3-1.346-3-3s1.346-3 3-3zm-15.373.627A4.933 4.933 0 0 0 11 8c0 2.757 2.243 5 5 5h9.558a5.858 5.858 0 0 1 1.139 2H14c-2.757 0-5-2.243-5-5 0-1.894 1.071-3.525 2.627-4.373zM8.18 13.882c.058.086.122.167.184.251A4.994 4.994 0 0 0 8 16c0 2.757 2.243 5 5 5h14v2H11c-2.757 0-5-2.243-5-5 0-1.665.837-3.196 2.18-4.118zM3 26c0-1.665.837-3.196 2.18-4.118.058.086.122.167.184.251A4.994 4.994 0 0 0 5 24c0 2.757 2.243 5 5 5h17v2H8c-2.757 0-5-2.243-5-5zm1.756 6.197c.164.086.331.169.502.242A5.017 5.017 0 0 0 5 34c0 2.757 2.243 5 5 5h8.391l-.727 2H8c-2.757 0-5-2.243-5-5 0-1.476.648-2.858 1.756-3.803zM14.755 49H8c-2.757 0-5-2.243-5-5 0-.887.243-1.747.681-2.503.416.327.869.606 1.353.834C5.208 44.931 7.357 47 10 47h5.482zm-.917 2A4.72 4.72 0 0 1 10 53a2.995 2.995 0 0 1-2.833-2.054c.274.032.551.054.833.054zm2.371-6H10a2.995 2.995 0 0 1-2.833-2.054c.274.032.551.054.833.054h8.936zm6.415-5.393-4.409 12.127A8.025 8.025 0 0 1 10.696 57H8c-2.757 0-5-2.243-5-5 0-.888.242-1.747.681-2.503.416.327.869.606 1.353.834C5.208 52.931 7.357 55 10 55a6.732 6.732 0 0 0 6.307-4.417l4.582-12.603c1.003-2.755 3.528-4.653 6.409-4.925l.687 2.062a7.017 7.017 0 0 0-5.361 4.49zM25 50a.28.28 0 0 1 .212-.272L27 49.28v1.439l-1.787-.447A.28.28 0 0 1 25 50zm0 8a.28.28 0 0 1 .212-.272L27 57.28v1.439l-1.787-.447A.28.28 0 0 1 25 58zm10 2a1 1 0 0 1-1 1h-4a1 1 0 0 1-1-1v-4a1 1 0 0 1 1-1h4a1 1 0 0 1 1 1zm4-2a.28.28 0 0 1-.212.272L37 58.72v-1.44l1.787.447A.282.282 0 0 1 39 58zm0-8a.28.28 0 0 1-.212.272L37 50.72v-1.44l1.787.447A.282.282 0 0 1 39 50zm17 7h-2.696a8.025 8.025 0 0 1-7.519-5.266l-4.409-12.127a7.02 7.02 0 0 0-5.361-4.491l.687-2.062c2.881.272 5.406 2.17 6.409 4.925l4.582 12.603A6.732 6.732 0 0 0 54 55c2.643 0 4.792-2.069 4.967-4.669a7.023 7.023 0 0 0 1.353-.834A4.99 4.99 0 0 1 61 52c0 2.757-2.243 5-5 5z" fill="#ec6869" data-original="#000000" class=""></path></g></svg>