<?xml version="1.0" encoding="utf-8"?>
<!-- Generator: Adobe Illustrator 27.5.0, SVG Export Plug-In . SVG Version: 6.00 Build 0)  -->
<svg version="1.1" id="Layer_1" xmlns:svgjs="http://svgjs.com/svgjs"
	 xmlns="http://www.w3.org/2000/svg" xmlns:xlink="http://www.w3.org/1999/xlink" x="0px" y="0px" viewBox="0 0 512 512"
	 style="enable-background:new 0 0 512 512;" xml:space="preserve">
<style type="text/css">
	.st0{fill:#EC6869;}
</style>
<g>
	<path class="st0" d="M387.3,145.3c-41.2,0-74.8-33.5-74.8-74.8V14H199.4v56.6c0,41.2-33.5,74.8-74.8,74.8C63.7,145.3,14,195,14,256
		c0,133.4,108.6,242,242,242c133.4,0,242-108.6,242-242C498,195,448.3,145.3,387.3,145.3z M256,477.5
		c-122.2,0-221.5-99.4-221.5-221.5c0-49.7,40.5-90.2,90.2-90.2c52.5,0,95.2-42.7,95.2-95.2V34.5h10.5v15.5h20.5V34.5h10.5v83.1
		c0,13.6-2.7,26.8-8,39.2l-5.4,12.7c-6.4,15-9.7,30.9-9.7,47.3c0,13.8,3.2,27.5,9.4,39.8c-3.7,1.4-7.3,3.2-10.5,5.4
		c-6.2-15.9-9.4-32.5-9.4-49.6c0-15.4,3.6-30.8,10.5-44.5c8.3-16.6,12.7-35.1,12.7-53.7V60.4h-20.5v53.8c0,15.4-3.6,30.8-10.5,44.5
		c-8.3,16.6-12.7,35.1-12.7,53.7c0,17.7,2.9,35,8.7,51.5c-8.5-6.7-19-10.4-30.1-10.4c-5.9,0-11.7,1-17.2,3.1L121,274.5l-8-11.9
		c-3.8-5.7-10.1-9-16.9-9c0,0,0,0,0,0c-11.2,0-20.3,9.1-20.3,20.3v28.6c0,13.3,10.2,24.3,23.2,25.6V341c0,9.9,8.1,18,18,18h10.4
		c15.7,19.8,34.7,36.2,56.7,48.7l10,5.7c13.7,9.9,29.8,15.1,46.5,15.1c32.2,0,63.8-8.8,91.4-25.3l36.5-21.9c4,0.6,7.7,0.9,11.2,0.9
		c44,0,79.8-35.8,79.8-79.8s-35.8-79.8-79.8-79.8c-17.2,0-34.2,5.7-48,16.1c-2-0.5-4-0.7-6.1-0.7c-13.4,0-25.3,9.3-33,25.6
		c-6.6-5.2-14.5-8.5-23-9.6c-7.3-11.1-11.1-24-11.1-37.3c0-13.6,2.7-26.8,8-39.2l5.4-12.7c6.4-15,9.7-30.9,9.7-47.3V34.5h10.5v36.1
		c0,52.5,42.7,95.2,95.2,95.2c49.7,0,90.2,40.5,90.2,90.2C477.5,378.2,378.2,477.5,256,477.5z M321.9,335.4l11.3-17l-12.1-8l0,0
		c-6-4-10.2-10.4-11.4-17.6c-0.5-2.9-1.3-5.9-2.7-9.3l0.3-1.7c3.7-13.7,11.2-23.3,18-23.3c1.1,0,2.4,0.3,3.7,1l6.1,2.9l5.1-4.5
		c10.9-9.6,24.8-14.9,39.2-14.9c32.7,0,59.3,26.6,59.3,59.3s-26.6,59.3-59.3,59.3c-14.4,0-28.3-5.3-39.2-14.9l-1.9-1.7L325,360.5
		l1.9,1.7c4.7,4.2,10,7.8,15.7,10.8l-21.2,12.7C297,400.3,269,408,240.5,408c-32.7,0-59.3-26.6-59.3-59.3c0-5.9,2.6-11.6,7-15.5
		l1.9-1.7l-13.5-15.3l-1.9,1.7c-1.3,1.2-2.6,2.4-3.7,3.7c-8.4-9-19.9-14-32.1-14h-37.4c-2.9,0-5.2-2.3-5.2-5.2v-28l16.7,25
		l62.8-23.6c3.2-1.2,6.6-1.8,10-1.8c10.8,0,20.6,6,25.4,15.7c9.5,18.9,28.4,30.6,49.6,30.6H274v-20.5h-13.2
		c-9.1,0-17.8-3.6-24.3-9.8l8.3-8.3c5-5,11.7-7.8,18.8-7.8c0,0,0,0,0.1,0c13,0,24,9.3,26.1,22.2c2.1,12.7,9.5,24.1,20.2,31.3
		L321.9,335.4z M119.4,328h19.4c0,0,0,0,0,0c10,0,18.9,6.3,22.3,15.7c-0.2,1.9-0.4,3.5-0.4,5c0,6.1,0.7,12.2,2.2,18.3
		c-8.4-7.6-16-15.8-22.4-24.4l-3.1-4.1h-18.1V328z"/>
	<rect x="423.5" y="207.1" class="st0" width="20.5" height="20.5"/>
	<rect x="153.1" y="222.6" class="st0" width="20.5" height="20.5"/>
	<rect x="299.9" y="184" class="st0" width="20.5" height="20.5"/>
	<rect x="361.7" y="400.3" class="st0" width="20.5" height="20.5"/>
	<rect x="245.8" y="446.6" class="st0" width="20.5" height="20.5"/>
	<rect x="106.7" y="377.1" class="st0" width="20.5" height="20.5"/>
	<rect x="60.4" y="207.1" class="st0" width="20.5" height="20.5"/>
</g>
</svg>
